<svg width="16" height="16" viewBox="0 0 16 16" fill="none" xmlns="http://www.w3.org/2000/svg">
<path d="M8.28333 11.4077H9.41667C9.5725 11.4077 9.7 11.3174 9.7 11.2014V2.63787C9.7 2.5218 9.5725 2.43152 9.41667 2.43152H8.28333C8.1275 2.43152 8 2.5218 8 2.63787V11.2014C8 11.3174 8.1275 11.4077 8.28333 11.4077Z" fill="#FF8ED0"/>
<path d="M14.1683 3C14.1683 4.10457 12.8252 5 11.1683 5C9.51148 5 8.16833 4.10457 8.16833 3C8.16833 1.89543 9.51148 1 11.1683 1C12.8252 1 14.1683 1.89543 14.1683 3Z" fill="#FF8ED0"/>
<path d="M6.885 4.00001H5.75167C5.59584 4.00001 5.46833 4.09028 5.46833 4.20636V12.7698C5.46833 12.8859 5.59584 12.9762 5.75167 12.9762H6.885C7.04084 12.9762 7.16833 12.8859 7.16833 12.7698V4.20636C7.16833 4.09028 7.04084 4.00001 6.885 4.00001Z" fill="#FFA9DB"/>
<path d="M1 12.4077C1 11.3031 2.34315 10.4077 4 10.4077C5.65685 10.4077 7 11.3031 7 12.4077C7 13.5123 5.65685 14.4077 4 14.4077C2.34315 14.4077 1 13.5123 1 12.4077Z" fill="#FFA9DB"/>
</svg>
