<svg width="662" height="354" viewBox="0 0 662 354" fill="none" xmlns="http://www.w3.org/2000/svg">
<path d="M244.4 202.72C239.84 202.72 236.04 201.16 233 198.04C229.96 194.92 228.44 190.04 228.44 183.4C228.44 177.48 229.6 171.28 231.92 164.8C234.32 158.24 237.84 152.72 242.48 148.24C247.2 143.68 252.8 141.4 259.28 141.4C262.56 141.4 265 141.96 266.6 143.08C268.2 144.2 269 145.68 269 147.52V148.36L270.32 142H287.6L278.96 182.8C278.64 184 278.48 185.28 278.48 186.64C278.48 190.08 280.12 191.8 283.4 191.8C285.64 191.8 287.56 190.76 289.16 188.68C290.84 186.6 292.16 183.88 293.12 180.52H298.16C295.2 189.16 291.52 195.04 287.12 198.16C282.8 201.2 278.44 202.72 274.04 202.72C270.68 202.72 267.96 201.8 265.88 199.96C263.88 198.04 262.68 195.28 262.28 191.68C259.96 194.96 257.36 197.64 254.48 199.72C251.68 201.72 248.32 202.72 244.4 202.72ZM252.2 191.08C254.2 191.08 256.16 190.16 258.08 188.32C260.08 186.4 261.44 183.8 262.16 180.52L267.92 153.4C267.92 152.36 267.52 151.36 266.72 150.4C265.92 149.36 264.68 148.84 263 148.84C259.8 148.84 256.92 150.72 254.36 154.48C251.8 158.16 249.8 162.64 248.36 167.92C246.92 173.12 246.2 177.72 246.2 181.72C246.2 185.72 246.76 188.28 247.88 189.4C249.08 190.52 250.52 191.08 252.2 191.08ZM364.084 202.72C359.844 202.72 356.764 201.44 354.844 198.88C352.924 196.32 351.964 193.08 351.964 189.16C351.964 187.48 352.164 185.6 352.564 183.52C352.964 181.36 353.364 179.28 353.764 177.28C354.244 175.28 354.564 174 354.724 173.44C355.364 170.64 355.964 167.88 356.524 165.16C357.084 162.44 357.364 160.24 357.364 158.56C357.364 154.48 355.924 152.44 353.044 152.44C350.964 152.44 349.124 153.48 347.524 155.56C345.924 157.56 344.644 160.2 343.684 163.48L335.524 202H318.244L327.004 160.6C327.244 159.64 327.364 158.64 327.364 157.6C327.364 154.08 326.164 152.32 323.764 152.32C321.524 152.32 319.564 153.36 317.884 155.44C316.284 157.44 315.004 160.12 314.044 163.48L305.884 202H288.604L301.324 142H318.604L317.284 148.24C321.364 143.68 326.244 141.4 331.924 141.4C338.964 141.4 343.084 144.84 344.284 151.72C348.684 144.92 354.244 141.52 360.964 141.52C365.044 141.52 368.284 142.64 370.684 144.88C373.084 147.12 374.284 150.52 374.284 155.08C374.284 157.4 374.004 160 373.444 162.88C372.884 165.68 372.084 169.12 371.044 173.2C370.404 175.68 369.804 178.12 369.244 180.52C368.764 182.84 368.524 184.68 368.524 186.04C368.524 187.64 368.884 188.88 369.604 189.76C370.324 190.64 371.564 191.08 373.324 191.08C375.244 191.08 376.564 190.84 377.284 190.36C376.804 194.44 375.324 197.52 372.844 199.6C370.444 201.68 367.524 202.72 364.084 202.72Z" fill="#FFF1FB"/>
<path d="M484.4 202.72C479.84 202.72 476.04 201.16 473 198.04C469.96 194.92 468.44 190.04 468.44 183.4C468.44 177.48 469.6 171.28 471.92 164.8C474.32 158.24 477.84 152.72 482.48 148.24C487.2 143.68 492.8 141.4 499.28 141.4C502.56 141.4 505 141.96 506.6 143.08C508.2 144.2 509 145.68 509 147.52V148.36L510.32 142H527.6L518.96 182.8C518.64 184 518.48 185.28 518.48 186.64C518.48 188.24 518.84 189.4 519.56 190.12C520.36 190.76 521.64 191.08 523.4 191.08C524.52 191.08 525.4 190.92 526.04 190.6C524.28 195.08 522.6 198.24 521 200.08C519.4 201.84 517.08 202.72 514.04 202.72C510.76 202.72 508.08 201.76 506 199.84C504 197.84 502.76 195.08 502.28 191.56C497.4 199 491.44 202.72 484.4 202.72ZM492.2 191.08C494.2 191.08 496.16 190.16 498.08 188.32C500.08 186.4 501.44 183.8 502.16 180.52L507.92 153.4C507.92 152.36 507.52 151.36 506.72 150.4C505.92 149.36 504.68 148.84 503 148.84C499.8 148.84 496.92 150.72 494.36 154.48C491.8 158.16 489.8 162.64 488.36 167.92C486.92 173.12 486.2 177.72 486.2 181.72C486.2 185.72 486.76 188.28 487.88 189.4C489.08 190.52 490.52 191.08 492.2 191.08Z" fill="#FFF1FB"/>
<g clip-path="url(#clip0_1_6)">
<path d="M423.5 138C405.543 138 389.954 145.238 382.22 155.832H377V270H402.473V200.443C408.781 202.711 415.935 204.016 423.524 204.016C449.215 204.016 470.024 189.228 470.024 171.023C470.024 152.819 449.191 138 423.5 138Z" fill="#FFF1FB"/>
</g>
<g clip-path="url(#clip1_1_6)">
<path d="M181.5 272C199.457 272 215.046 264.871 222.78 254.438H228V142H202.527V210.503C196.219 208.27 189.065 206.985 181.476 206.985C155.785 206.985 134.976 221.548 134.976 239.477C134.976 257.406 155.809 272 181.5 272Z" fill="#FFF1FB"/>
<rect x="190" y="149" width="10" height="11" fill="#FFF1FB"/>
<rect x="190" y="166" width="10" height="11" fill="#FFF1FB"/>
</g>
<defs>
<clipPath id="clip0_1_6">
<rect width="93" height="132" fill="white" transform="translate(377 138)"/>
</clipPath>
<clipPath id="clip1_1_6">
<rect width="93" height="130" fill="white" transform="matrix(-1 0 0 -1 228 272)"/>
</clipPath>
</defs>
</svg>
